# xmcd CD database file
# Copyright (C) 2003 Ti Kan
# 
# Track frame offsets:
#     150
#     16896
#     35709
#     56714
#     71981
#     89924
#     119926
#     138494
#     159711
#     171978
#     191998
#     211684
#     245377
# 
# Disc length: 3521 seconds
# 
# Revision: 1
# Processed by: cddbd v1.4PL0 Copyright (c) Steve Scherf et al.
# Submitted via: DiscPlay 4.0.4
# 
DISCID=d10dbf0d
DTITLE=Tom Russell - Tom Russell Live at the Cactus Cafe - 06-05-91
DYEAR=1900
DGENRE=
TTITLE0=Hong Kong Boy
TTITLE1=Beyond the Blues
TTITLE2=Navajo Rug
TTITLE3=Outboard Plane
TTITLE4=Evangeline Hotel
TTITLE5=Angel of Lyon
TTITLE6=Veterans Day
TTITLE7=Blue Wing
TTITLE8=Big Fool
TTITLE9=Walking on the Moon
TTITLE10=Haley's Comet
TTITLE11=Gallo del Ciello
TTITLE12=St. Olav's Gate
EXTD=Submitted by ecto@cox.net
EXTT0=
EXTT1=
EXTT2=
EXTT3=
EXTT4=
EXTT5=
EXTT6=
EXTT7=
EXTT8=
EXTT9=
EXTT10=
EXTT11=
EXTT12=
PLAYORDER=
